<?xml version="1.0" encoding="utf-8"?>

<!DOCTYPE svg PUBLIC "-//W3C//DTD SVG 1.1//EN" "http://www.w3.org/Graphics/SVG/1.1/DTD/svg11.dtd">
<svg version="1.1" id="Layer_1" xmlns="http://www.w3.org/2000/svg" xmlns:xlink="http://www.w3.org/1999/xlink" x="0px" y="0px"
	 viewBox="-19 -30.9153 1218 1981.8306" enable-background="new -19 -30.9153 1218 1981.8306" xml:space="preserve">
<g>
	<g id="XMLID_1_">
		<path fill="#FFFFFF" d="M795.55,188.85c-0.79-5.27-2.75-10.45-2.79-15.78c4.46-9.48,12.43-17.68,22.52-21.02
			c13.83-4.68,30.11-1.08,40.65,9.03c6.98,6.59,11.03,16.4,9.74,26.03c-1.39,9.83-5.78,19.05-11.46,27.12
			c-4.39,6-11.48,11.02-19.2401,10.09c-10.55-1.54-19.14-9.56-23.47-19.01c2.28,2.1,4.4,4.76,7.58,5.49
			c4.28,1.22,8.64-1.11,11.67-4.01c5.4-5.44,8.62-13.1,8.53-20.78c-0.0601-4.16-1.67-8.64-5.35-10.91
			c-4.5-3.1-10.33-2.76-15.42-1.64c-7.33,1.74-14.57,6.2-17.59,13.37c-2.06,4.69-2.35,9.81-1.52,14.79l-1.37,0.22
			C797.35,197.48,796.52,193.15,795.55,188.85z"/>
		<path fill="#AEECA1" d="M195.02,1713.05c30.47,3.9199,61.24,5.6799,91.96,4.9399c20.18-0.6899,40.48-2.22,60.16-6.98
			c10.61-2.7,21.33-6.14,30.26-12.67c5.89-4.35,10.97-10.73,11.45-18.2899c0.53-4.75-0.69-9.42-2.23-13.8601
			c15.09,4.8,30.05,9.9801,45.14,14.75c-15.47-46.8199-21.7-96.3799-20.94-145.58c13.05-2.11,26.26-3.0499,39.39-4.5699
			c26.21-2.39,52.44-4.6001,78.74-5.52c12.66-1.15,25.41-0.7001,38.1-1.47c27.66-0.4501,55.34-0.4701,83,0.11
			c63.36,1.9299,126.73,6.77,189.38,16.6699c0.26-0.2899,0.77-0.88,1.03-1.1799c4.79,16.01,9.69,32.01,15.46,47.7
			c4.66,12.48,9.76,24.88,16.64,36.3301c4.39,6.99,9.38,14.13,16.75,18.24c4.53,2.6699,10.28,2.76,15.11,0.84
			c6.27-2.4401,12.56-4.84,18.84-7.26c-0.94,11.0601-1.74,22.15-3.11,33.1801c-1.57,14.2599,1.34,28.5699,0.25,42.84
			c-10.35,2.96-21.14,0.73-31.54-0.6801c-11.38-1.6-23.26-3.45-34.5-0.0699c-8.66,2.5499-15.75,9.37-19.16,17.6699
			c-2.49,6.05-1.17,13.04,2.08,18.55c6.75,11.13,17.8799,18.71,29.1,24.8101c10.96,5.6,22.95,10.88,35.56,9.73
			c13.53-1.16,26.21-6.8101,37.86-13.51c19.16-11.4,36.09-26.47,49.99-43.87c10.36-13.3101,19.56-28.24,22.69-45.04
			c1.79-8.99,0.2-18.25-2.88-26.76c-5.34-14.7999-13.53-28.3199-21.56-41.77c15.9901-5.84,32.23-11.0199,48.72-15.24
			c-0.99-1.75-1.97-3.47-3.03-5.13c10.22,2.7201,19.6801,7.7001,29.39,11.8201c21.23,9.6,41.87,20.6899,60.85,34.25
			c13.77,10,26.8201,21.28,37.16,34.89c9.88,12.63,16.85,27.6799,18.87,43.6699v15c-2.8101,19.15-12.4399,36.78-25.47,50.9
			c-11.27,12.5601-24.54,23.1801-38.5801,32.48c-35.9199,23.65-76.12,39.9401-116.83,53.3201
			c-42.19,13.6899-85.49,23.75-129.12,31.64c-66.39,11.7599-133.64,18.5399-201,20.8999c-9.82,1-19.71,0.49-29.54,1.17h-72.01
			c-8.46-0.86-16.98-0.22-25.42-1.16c-66.04-2.46-131.99-8.99-197.1-20.4299c-48.01-8.5701-95.65-19.75-141.86-35.4501
			c-35.9-12.33-71.2-27.2-103.28-47.6799c-17.91-11.6-34.91-25.0801-48.12-41.97C40.63,1759.24,32.55,1742.08,32.19,1723.96
			c-0.82-16.84,5.34-33.34,14.67-47.14c9.76-14.58,22.74-26.6899,36.67-37.24c15.52-11.72,32.34-21.64,49.74-30.2699
			c39.39-19.7101,81.38-33.7101,123.87-45.03c7.67-1.78,15.16-4.53,23.05-5.22c-3.75,16.36-7.69,33.0299-6.64,49.9399
			c0.53,7.33,2.82,16.03,10.15,19.33c8.3,3.6901,16.76,6.99,25.19,10.39c-45.09,14.6901-92.44,19.9-139,27.79
			c-13.48,2.39-27.1,4.3-40.24,8.23c-5.57,1.88-11.73,3.62-15.72,8.22c-2.14,2.42-1.05,6.04,1.23,7.9401
			c5.19,4.73,12.03,7.03,18.52,9.39C153.58,1706.77,174.32,1710.22,195.02,1713.05z"/>
		<path fill="#333333" d="M1009.6,1652.1c3.08,8.51,4.67,17.77,2.88,26.76c-3.13,16.8-12.33,31.73-22.69,45.04
			c-13.9,17.4-30.83,32.47-49.99,43.87c-11.65,6.7-24.33,12.35-37.86,13.51c-12.61,1.15-24.6-4.13-35.56-9.73
			c-11.22-6.1001-22.35-13.6801-29.1-24.8101c-3.25-5.51-4.57-12.5-2.08-18.55c3.41-8.2999,10.5-15.12,19.16-17.6699
			c11.24-3.38,23.12-1.53,34.5,0.0699c10.4,1.41,21.19,3.64,31.54,0.6801c1.09-14.27-1.82-28.5801-0.25-42.84
			c1.37-11.03,2.17-22.12,3.11-33.1801c21.52-8.49,42.98-17.16,64.78-24.92C996.07,1623.78,1004.26,1637.3,1009.6,1652.1z"/>
		<path fill="#FFFEFF" d="M831.07,185.89c0.56,6.43-1.87,13.25-6.79,17.51c-1.58,1.54-4.34,2.07-6.01,0.4
			c-4.33-3.46-5.17-9.17-7.66-13.78c2.97-5.55,9.45-7.74,15.35-8.37C828.5,181.4,830.9,183.31,831.07,185.89z"/>
		<path fill="#AEECA1" d="M743.5,906.64c10.86-62.56,36.64-121.02,56.16-181.09c0.86,12.8,0.48,25.65,1.44,38.44
			c2.19,48.06,7.33,95.93,9.45,143.99c0.09,10.07,0.93,20.3-1.25,30.21c-3.19,5.83-10.52,6.55-16.28,8.22
			c-17.04,3.32-34.48,4.15-51.81,4.26C741.38,935.98,740.54,921.13,743.5,906.64z"/>
		<path fill="#AEECA1" d="M726.14,463.99c24.4,15.43,46.81,34.81,62.99,58.91c12.04,18.02,20.13,38.71,23.17,60.19
			c4.76,30.69,0.16,61.95-7.38,91.8c-7.95,31.53-19.02,62.04-30.31,92.49l-34.44-6.73c4.96-11.28,9.27-22.82,12.61-34.7
			c5.89-20.73,10-42.64,6.49-64.17c-2.11-13.8101-6.06-27.3701-12.04-40c-9.39-19.6801-21.51-37.86-32.21-56.8101
			c-6.95-12.4-13.34-25.5699-14.84-39.8799c-1.82-14.7,2.69-29.55,10.63-41.88c0.46-0.7,0.92-1.39,1.39-2.07
			C716.21,474.93,721.34,469.58,726.14,463.99z"/>
		<path fill="#AEECA1" d="M774.61,767.38c-7.72,20.83-15.54,41.63-22.53,62.7c-7.88,24.35-15.21,48.98-19.63,74.23
			c-5.35,27.95-0.38,56.73-5.49,84.71c-1.43,6.65-2.98,13.91-7.95,18.91c-4.21,3.75-10.07,2-15.08,1.63
			c-11.88-1.29-23.84-2.42-35.69-4.2c-10.45-1.57-20.82-3.64-30.94-6.78c-4.58-1.64-9.49-3.33-12.95-6.89
			c-0.5099-2.7,0.66-5.34,1.21-7.93c5.9-23.56,15.78-45.88,26.81-67.44c21.54-42.15,49.05-80.87,71.35-122.6
			c5.9-10.8,11.4901-21.8,16.45-33.0699L774.61,767.38z"/>
		<path fill="#AEECA1" d="M672.78,470.77c5.1-6.54,11.73-11.61,17.73-17.28c1.91-2.04,4.99-1.05,7.47-1.22
			c8.82,0.67,17.41,3.69,25.2,7.82c-6.07,6.69-12.13,13.55-17.07,21.13c-2.25,3.45-4.27,7.04-5.96,10.83
			c-6.91,14.56-7.73,31.57-3.4901,47.01c4.09,15.2,12.17,28.86,19.86,42.44c11.04,19.17,22.54,38.35,29.49,59.47
			c5.52,16.66,7.13,34.57,4.59,51.94c-3.78,26.9901-13.71,52.71-25.78,77.01c-21.33,42.43-49.06,81.17-72.38,122.48
			c-12.34,21.92-23.77,44.49-31.98,68.31c-11.7,2.25-23.61,3.27-35.44,4.6c-19.26,1.65-38.76,2.26-57.97-0.3
			c-10.74-1.76-21.75-4.19-31.08-10.04c-0.81-3.4399,1.36-7.1299,2.71-10.33c11.64-22.37,28.06-41.7,43.45-61.5
			c16.71-21.11,28.74-45.51,38.34-70.55c7.16-18.98,13.46-38.28,19.34-57.7c10.21-34.71,13.92-70.83,18.52-106.59
			c5.61-42.26,10.71-85.08,25.39-125.37c3.88-10.61,8.57-20.96,14.23-30.75C662.3,484.66,667.22,477.47,672.78,470.77z"/>
		<path fill="#FEEDD5" d="M687.27,450.24c-4.09,3.58-8.47,6.84-12.26,10.76c-3.09,3-5.67,6.55-9.29,8.97
			c-0.68-17.58-4.62-34.83-9.6-51.63c4.37-1.42,8.68-2.99,12.95-4.69c12.55,10.2,23.15,22.48,33.99,34.4
			C697.85,448.11,691.38,446,687.27,450.24z"/>
		<path fill="#D71D4F" d="M673.6,298.35c5.67,5.89,8.17,14.63,6.32,22.61c-2.24,9.69-10.35,17.38-19.79,20.06
			c-10.84,3.28-23.49,0.58-31.54-7.54c-6.46-6.22-9.03-15.9-6.71-24.53c3.03-11.05,13.64-18.77,24.77-20.05
			C656.42,287.69,666.89,291,673.6,298.35z"/>
		<path fill="#867EA3" d="M636.11,196.07c5.62-2.05,13.07,0.86,14.5,6.99c1.34,5.43-3.39,10.64-8.65,11.22
			c-5.46,1.1-11.87-2.37-12.75-8.12C628.45,201.61,631.87,197.32,636.11,196.07z"/>
		<path fill="#FFEDD5" d="M722.77,1072.23c1.97,3.0701,3.82,6.6901,2.86,10.4501c-0.92,2.2599-3.27,3.38-5.21,4.63
			c-13.77,7.8899-27.71,15.58-42.36,21.75c-9.25,3.8099-18.96,6.95-29.02,7.48c-5.34,0.3099-11.49-1.51-14.07-6.5901
			c-3.15-6.1699-2.33-13.4399-0.95-19.97c1.88-8.6699,5.82-16.95,5.87-25.95c-0.05-3.7101-0.2-7.64-1.97-10.98
			c-1.19-2.27-4.41-2.4501-6.5-1.4801c-7.8,4.3-16.52,7.2401-25.46,7.62c-2.43-0.0299-5.88-0.4099-6.4901-3.2899
			c-0.54-5.01,2.01-9.6901,4.65-13.74c7.71-11.3,17.71-20.6901,27.02-30.6201c0.62-0.66,1.24-1.32,1.85-1.99
			c10.96,3.34,22.2,5.52,33.52,7.26c8.42,1.31,16.88,2.37,25.3,3.48c5.11,9.44,7.7,20.16,13.81,29.1
			C711.01,1057.25,717.82,1064.0601,722.77,1072.23z"/>
		<path fill="#FFEDD5" d="M592.13,191.51c2.34-12.9,1.1-26.44-4.22-38.46c-5.45-12.54-14.54-23.19-25-31.86
			c-6.67-5.42-13.93-10.16-21.6-14.08l0.09-12.71c18.73,0.08,37.49-3.78,54.7-11.19c18.73-7.91,35.54-19.59,51.72-31.75
			c0.17,20.57-4.2,40.89-10.23,60.46c-7.66,24.91-17.71,49.21-22.13,75.01c-0.33,2.02-0.65,4.05-0.94,6.09L592.13,191.51z"/>
		<path fill="#FFEDD5" d="M541.31,107.11c-12.79-6.54-26.73-10.8-41.05-12.09l-2.22-1.03c2.7-5.92,5.32-11.89,7.86-17.88
			c0.78-2.78,3.43-4.12,5.67-5.57c6.2-3.97,12.73-7.4,19.37-10.57c2.77-1.43,5.98-1.18,8.99-1.42c7.64-0.35,15.41-0.91,22.95,0.69
			c2.28,0.61,4.99,1.5,5.92,3.92c0.75,3.21-1.3,6.1-3.06,8.57c-7.08,8.89-16.56,15.36-25.14,22.66c0.27,0,0.53,0,0.8,0.01
			L541.31,107.11z"/>
		<path fill="#857EA2" d="M525.8,155.68c-5.35,2.03-12.55-0.18-14.54-5.87c-1.73-4.39,0.95-9.48,5.15-11.25
			c5.46-2.76,13.35-0.47,15.53,5.51C533.69,148.84,530.45,154.19,525.8,155.68z"/>
		<path fill="#857EA2" d="M499.19,270.04c2.38-4.98,7.25-8.03,11.41-11.4c17.92-13.53,37.85-24.37,54.64-39.39
			c3.57-3.51,7.05-7.26,9.21-11.83c5.77-11.14,9.36-23.82,7.49-36.43c-1.79-16.63-11.55-31.26-23.53-42.44
			c-16.3199-15.09-36.99-25.25-58.82-29.34c0.23-1.4,0.45-2.8,0.67-4.19c14.32,1.29,28.26,5.55,41.05,12.09
			c7.67,3.92,14.93,8.66,21.6,14.08c10.46,8.67,19.55,19.32,25,31.86c5.32,12.02,6.56,25.56,4.22,38.46
			c-2.24,12.37-7.78,24.14-16.19,33.43c-17.93,17.72-40.59,29.42-60.79,44.21c-0.9901,0.73-2.02,1.51-2.3,2.78
			c23.1801,7.21,48.42,5.47,71.38-1.71c12.31-4.01,24.52-8.89,35.36-16.04c1.03,1.13,1.91,2.39,2.66,3.74
			c-27.9,19.91-62.82,31.19-97.2,27.14c-7.45-0.99-14.86-2.59-21.88-5.25C499.31,278.45,497.35,273.71,499.19,270.04z"/>
		<path fill="#FFEDD5" d="M628.59,333.48c8.05,8.12,20.7,10.82,31.54,7.54c9.44-2.68,17.55-10.37,19.79-20.06
			c1.85-7.98-0.65-16.72-6.32-22.61c-6.71-7.35-17.18-10.66-26.95-9.45c-11.13,1.28-21.7401,9-24.77,20.05
			C619.56,317.58,622.13,327.26,628.59,333.48z M511.26,149.81c1.99,5.69,9.19,7.9,14.54,5.87c4.65-1.49,7.89-6.84,6.14-11.61
			c-2.18-5.98-10.07-8.27-15.53-5.51C512.21,140.33,509.53,145.42,511.26,149.81z M650.61,203.06c-1.43-6.13-8.88-9.04-14.5-6.99
			c-4.24,1.25-7.66,5.54-6.9,10.09c0.88,5.75,7.29,9.22,12.75,8.12C647.22,213.7,651.95,208.49,650.61,203.06z M725.62,198.87
			c3.9-31.22,7.73-62.5,13.44-93.47c12.2,4.13,19.46,16.08,24.17,27.38c10.64,26.98,11.33,56.37,16.19,84.64
			c0.93-17.35,1.37-35.21,7.92-51.58c0.37,4.4,0.66,8.83,1.64,13.15c5.31,23.85,7.49,48.63,4.27,72.93
			c-2.4,19.34-7.72,38.38-16.39,55.86c-8.53,17.49-20.38,33.21-33.84,47.21c-28.28,28.15-64.48,47.97-103.04,57.94
			c-41.38,10.84-86.25,11.75-126.86-2.79c-18.62-6.7-36.01-17.13-50.02-31.18c-12.52-12.84-22.07-28.53-27.7-45.56
			c-7.07-21.43-8.19-44.41-6.04-66.75c2.44-27.05,10.34-53.36,21.06-78.22c9.92-22.47,22.02-43.87,33.4-65.62
			c5.04-9.46,9.75-19.08,14.22-28.82l2.22,1.03c-0.22,1.39-0.44,2.79-0.67,4.19c21.83,4.09,42.5,14.25,58.82,29.34
			c11.98,11.18,21.7401,25.81,23.53,42.44c1.87,12.61-1.72,25.29-7.49,36.43c-2.16,4.57-5.64,8.32-9.21,11.83
			c-16.79,15.02-36.72,25.86-54.64,39.39c-4.16,3.37-9.03,6.42-11.41,11.4c-1.84,3.67,0.12,8.41,3.98,9.77
			c7.02,2.66,14.43,4.26,21.88,5.25c34.38,4.05,69.3-7.23,97.2-27.14c-0.75-1.35-1.63-2.61-2.66-3.74
			c-10.84,7.15-23.05,12.03-35.36,16.04c-22.96,7.18-48.2,8.92-71.38,1.71c0.28-1.27,1.31-2.05,2.3-2.78
			c20.2-14.79,42.86-26.49,60.79-44.21c8.41-9.29,13.95-21.06,16.19-33.43l22.39,1.51c-1.05,7.47-1.74,15-1.38,22.55
			c18.73-37.66,41.7-72.97,63.95-108.59c6.5699-10.31,12.8-20.83,19.33-31.16c9.37,19.13,13.27,40.29,16.67,61.14
			C716.51,157.73,719.16,178.76,725.62,198.87z"/>
		<path fill="#FFFFFF" d="M432.1,122.09c3.55-4.35,8.07-8.65,13.87-9.45c4.41-0.38,7.79,3.26,9.36,7.01
			c2.69,6.44,2.11,13.56,2.23,20.37c1.37,0.17,2.74,0.33,4.12,0.5c-0.93,1.63-1.74,3.33-2.81,4.88c-1.34,0.17-2.58-0.67-3.86-0.93
			c-7.23-2.18-14.89-1.17-22.31-1.07c-0.01,1.43-0.01,2.87-0.01,4.3c7.59,0.64,15.31,1.59,22.34,4.71
			c-1.13,2.53-1.91,5.87-4.97,6.68c-6,2.42-13.12,3.83-19.25,1.1c-3.94-1.74-5.51-6.18-5.73-10.19
			C424.31,140.32,426.39,130.07,432.1,122.09z"/>
		<path fill="#867EA3" d="M824.28,203.4c4.92-4.26,7.35-11.08,6.79-17.51c-0.17-2.58-2.57-4.49-5.11-4.24
			c-5.9,0.63-12.38,2.82-15.35,8.37c2.49,4.61,3.33,10.32,7.66,13.78C819.94,205.47,822.7,204.94,824.28,203.4z M445.97,112.64
			c-5.8,0.8-10.32,5.1-13.87,9.45c-5.71,7.98-7.79,18.23-7.02,27.91c0.22,4.01,1.79,8.45,5.73,10.19c6.13,2.73,13.25,1.32,19.25-1.1
			c3.06-0.81,3.84-4.15,4.97-6.68c-7.03-3.12-14.75-4.07-22.34-4.71c0-1.43,0-2.87,0.01-4.3c7.42-0.1,15.08-1.11,22.31,1.07
			c1.28,0.26,2.52,1.1,3.86,0.93c1.07-1.55,1.88-3.25,2.81-4.88c-1.38-0.17-2.75-0.33-4.12-0.5c-0.12-6.81,0.46-13.93-2.23-20.37
			C453.76,115.9,450.38,112.26,445.97,112.64z M799.66,725.55c-19.52,60.07-45.3,118.53-56.16,181.09
			c-2.96,14.49-2.12,29.34-2.29,44.03c17.33-0.11,34.77-0.94,51.81-4.26c5.76-1.67,13.09-2.39,16.28-8.22
			c2.18-9.91,1.34-20.14,1.25-30.21c-2.12-48.06-7.26-95.93-9.45-143.99C800.14,751.2,800.52,738.35,799.66,725.55z M675.01,461
			c3.79-3.92,8.17-7.18,12.26-10.76c4.11-4.24,10.58-2.13,15.79-2.19c-10.84-11.92-21.44-24.2-33.99-34.4
			c-4.27,1.7-8.58,3.27-12.95,4.69c4.98,16.8,8.92,34.05,9.6,51.63C669.34,467.55,671.92,464,675.01,461z M445.88,59.42
			c29.56-7.53,58.16-18.23,86.76-28.71C571.71,16.47,611.61,2.19,653.53,0h17.02c18.29,1.23,36.49,4.88,53.43,12.02
			c19.3,7.95,36.89,19.66,52.58,33.37c11.16,9.68,21.06,21.05,27.92,34.21c6.51,12.41,10.17,26.38,10.23,40.42
			c0.12,1.52-1.07,2.62-1.88,3.74c-7.38,8.89-14.14,18.33-19.61,28.51c-2.1,3.53-1.12,7.81-1.29,11.7
			c5.63-8.98,13.88-16.64,24.12-19.93c15.5-4.85,33.6-1.63,45.95,9.1c8.41,6.79,13.78,17.05,14.71,27.8
			c1.12,10.71-2.61,21.17-7.19,30.67c-4.98,9.74-12.54,19.01-23.12,22.81c-7.8,2.89-16.64,1.82-23.95-1.92
			c-8.55-4.34-15.32-11.77-19.61-20.27c-1.6-3.31-2.83-6.92-3.44-10.61c-0.83-4.98-0.54-10.1,1.52-14.79
			c3.02-7.17,10.26-11.63,17.59-13.37c5.09-1.12,10.92-1.46,15.42,1.64c3.68,2.27,5.29,6.75,5.35,10.91
			c0.09,7.68-3.13,15.34-8.53,20.78c-3.03,2.9-7.39,5.23-11.67,4.01c-3.18-0.73-5.3-3.39-7.58-5.49
			c4.33,9.45,12.92,17.47,23.47,19.01c7.76,0.93,14.85-4.09,19.2401-10.09c5.68-8.07,10.07-17.29,11.46-27.12
			c1.29-9.63-2.76-19.44-9.74-26.03c-10.54-10.11-26.82-13.71-40.65-9.03c-10.09,3.34-18.0601,11.54-22.52,21.02
			c0.04,5.33,2,10.51,2.79,15.78c0.97,4.3,1.8,8.63,2.48,12.99c5.97,38.11,0.7599,78.07-16.34,112.76
			c-21.62,43.29-60.53,76.43-104.49,95.66c16.3,11.97,30.04,26.91,44.39,41.06c0.02,0.6,0.05,1.82,0.0699,2.42
			c15.66,6.73,28.6201,18.18,40.36,30.29c14.36,12.71,27.8,26.77,37.64,43.35c17.02,27.89,23.75,61.19,22.22,93.6
			c-0.7,20.48-4.36,40.75-9.34,60.59c-1.12,4.76-2.95,9.42-3.05,14.37c-1.16,53.15,4.46,106.1,8.48,159.02
			c1.4901,16.98,2.89,33.97,3.52,51.0099c0.34,11.78,1.57,23.76-1.19,35.36c-1.65,6.35-7.56,10.34-13.31,12.69
			c-14.78,5.58-30.72,6.55-46.32,7.69c-6.47,41.73-19.87,82.68-19.15,125.3c0.34,24.96,7.33,49.53,18.8,71.62
			c17.49,34.05,43.45,62.58,65,93.97c9.06,12.9301,16.74,26.72,24.92,40.2001c43.17,72.2899,86.07,144.75,130.96,216
			c17.24,27.22,34.47,54.47,52.53,81.1599c1.0601,1.66,2.04,3.38,3.03,5.13c-16.49,4.2201-32.73,9.4-48.72,15.24
			c-21.8,7.76-43.2599,16.4301-64.78,24.92c-6.28,2.42-12.57,4.8199-18.84,7.26c-4.83,1.92-10.58,1.83-15.11-0.84
			c-7.37-4.11-12.36-11.25-16.75-18.24c-6.88-11.4501-11.98-23.8501-16.64-36.3301c-5.77-15.6899-10.67-31.6899-15.46-47.7
			c-2.89-9.27-6.62-18.25-9.64-27.47c-14.52-43.4-22.85-88.5-34.2-132.76c-4.83-18.41-9.58-36.9701-17.61-54.3
			c-16.88-37.98-43.54-70.27-65.82-105.04c-19.03-29.6699-35.23-62.6699-37.46-98.3999c-9.87,3.3899-20.2,6.5299-30.76,5.6
			c-6.79-0.5801-13.7599-3.42-17.71-9.2001c-5.83-8.2999-5.88-19.24-3.59-28.76c1.76-8.7599,5.78-17.0199,6.29-26.0299
			c-8.83,3.1899-18.23,6.14-27.71,4.6799c-5.01-0.73-9.84-4.15-10.89-9.3099c-1.59-7.48,2.09-14.85,6.35-20.76
			c7.38-9.9501,16.56-18.3,25.5099-26.82l7.92,0.71c-9.31,9.93-19.31,19.32-27.02,30.6201c-2.64,4.0499-5.19,8.73-4.65,13.74
			c0.61,2.88,4.0601,3.26,6.4901,3.2899c8.94-0.3799,17.66-3.3199,25.46-7.62c2.09-0.97,5.31-0.7899,6.5,1.4801
			c1.77,3.34,1.92,7.2699,1.97,10.98c-0.05,9-3.99,17.28-5.87,25.95c-1.38,6.53-2.2,13.8,0.95,19.97
			c2.58,5.0801,8.73,6.9,14.07,6.5901c10.06-0.53,19.77-3.67,29.02-7.48c14.65-6.17,28.59-13.8601,42.36-21.75
			c1.94-1.25,4.29-2.3701,5.21-4.63c0.96-3.76-0.89-7.38-2.86-10.4501c-4.95-8.1699-11.76-14.98-17.15-22.84
			c-6.11-8.9401-8.7-19.66-13.81-29.1c-8.42-1.11-16.88-2.17-25.3-3.48l1.73-11.45c11.85,1.78,23.81,2.91,35.69,4.2
			c5.01,0.37,10.87,2.12,15.08-1.63c4.97-5,6.52-12.26,7.95-18.91c5.11-27.98,0.14-56.76,5.49-84.71
			c4.42-25.25,11.75-49.88,19.63-74.23c6.99-21.07,14.81-41.87,22.53-62.7c11.29-30.45,22.36-60.96,30.31-92.49
			c7.54-29.85,12.14-61.11,7.38-91.8c-3.04-21.48-11.13-42.17-23.17-60.19c-16.18-24.1-38.59-43.48-62.99-58.91
			c-4.8,5.59-9.93,10.94-13.94,17.15c-0.47,0.68-0.93,1.37-1.39,2.07l-4.7-1.99c4.94-7.58,11-14.44,17.07-21.13
			c-7.79-4.13-16.38-7.15-25.2-7.82c-2.48,0.17-5.56-0.82-7.47,1.22c-6,5.67-12.63,10.74-17.73,17.28
			c-5.5601,6.7-10.48,13.89-14.83,21.41l-4.76-2.82c0.33-0.68,0.6-1.39,0.8-2.13c0.21-5.77,1.47-11.45,1.44-17.22
			c-0.06-16.68-2.52-33.22-5.51-49.58c-13.38,3.95-26.97,7.29-40.83,9.02c-36.84,5.02-75.4301,2.01-109.83-12.71
			c-16.64-7.2-31.95-17.48-44.76-30.32c-10.68-10.46-18.82-23.26-25.25-36.68c-12.49-28.05-14.69-59.67-10.79-89.84
			c3.5-30.88,13.63-60.66,27.21-88.5c-6.78,1.42-14.23,1.87-20.58-1.4c-6.14-3.01-10.18-9.31-11.22-15.97
			c-1.95-13.41,0.94-27.94,9.69-38.55c5.73-6.96,14.15-12.92,23.58-12.13c6.26,0.32,11.5,4.96,13.97,10.51
			c3.66,8.05,2.08,17.12,1.08,25.57c11.16-20.79,22.86-41.34,32.13-63.07c1.35-2.98,2.19-6.2,3.99-8.96
			c2.09-2.83,5.4-4.33,8.27-6.22C486.38,62.26,465.8,63.93,445.88,59.42z M511.57,70.54c-2.24,1.45-4.89,2.79-5.67,5.57
			c-2.54,5.99-5.16,11.96-7.86,17.88c-4.47,9.74-9.18,19.36-14.22,28.82c-11.38,21.75-23.48,43.15-33.4,65.62
			c-10.72,24.86-18.62,51.17-21.06,78.22c-2.15,22.34-1.03,45.32,6.04,66.75c5.63,17.03,15.18,32.72,27.7,45.56
			c14.01,14.05,31.4,24.48,50.02,31.18c40.61,14.54,85.48,13.63,126.86,2.79c38.56-9.97,74.76-29.79,103.04-57.94
			c13.46-14,25.31-29.72,33.84-47.21c8.67-17.48,13.99-36.52,16.39-55.86c3.22-24.3,1.04-49.08-4.27-72.93
			c-0.98-4.32-1.27-8.75-1.64-13.15c-6.55,16.37-6.9901,34.23-7.92,51.58c-4.86-28.27-5.55-57.66-16.19-84.64
			c-4.71-11.3-11.97-23.25-24.17-27.38c-5.71,30.97-9.54,62.25-13.44,93.47c-6.46-20.11-9.11-41.14-12.53-61.91
			c-3.4-20.85-7.3-42.01-16.67-61.14c-6.53,10.33-12.76,20.85-19.33,31.16c-22.25,35.62-45.22,70.93-63.95,108.59
			c-0.36-7.55,0.33-15.08,1.38-22.55c0.29-2.04,0.61-4.07,0.94-6.09c4.42-25.8,14.47-50.1,22.13-75.01
			c6.03-19.57,10.4-39.89,10.23-60.46c-16.18,12.16-32.99,23.84-51.72,31.75c-17.21,7.41-35.97,11.27-54.7,11.19
			c-0.27-0.01-0.53-0.01-0.8-0.01c8.58-7.3,18.06-13.77,25.14-22.66c1.76-2.47,3.81-5.36,3.06-8.57c-0.93-2.42-3.64-3.31-5.92-3.92
			c-7.54-1.6-15.31-1.04-22.95-0.69c-3.01,0.24-6.22-0.01-8.99,1.42C524.3,63.14,517.77,66.57,511.57,70.54z"/>
		<path fill="#333333" d="M286.98,1717.99c-30.72,0.74-61.49-1.02-91.96-4.9399c-20.7-2.8301-41.44-6.28-61.34-12.76
			c-6.49-2.36-13.33-4.66-18.52-9.39c-2.28-1.9-3.37-5.52-1.23-7.9401c3.99-4.6,10.15-6.34,15.72-8.22
			c13.14-3.9299,26.76-5.84,40.24-8.23c46.56-7.89,93.91-13.1,139-27.79c25.65,9.87,51.68,18.72,77.73,27.47
			c1.54,4.4401,2.76,9.1101,2.23,13.8601c-0.48,7.5599-5.56,13.9399-11.45,18.2899c-8.93,6.53-19.65,9.9701-30.26,12.67
			C327.46,1715.77,307.16,1717.3,286.98,1717.99z"/>
		<path fill="#AEECA1" d="M510.99,741.78c-27.62-6.53-49.95-25.7-76.94-33.88c-19.52-5.52-39.74-8.2-59.96-9.39
			c-44.45-2.26-88.88,1.8-133.03,6.6c-16.93,0.93-33.07,7.39-49.99,8.21c0.83-9.94,5.14-19.11,9.26-28.05
			c17.51-35,41.9-65.83,63.96-97.96c7.82-0.29,15.29,2.5,22.66,4.74c40.43,14.01,78.99,32.69,118.16,49.75
			c16.57,7.13,32.88,14.89,49.89,20.93c11.84,4.19,24.96,4.64,36.98,0.92c19.98-5.76,36.3-19.56,50.67-34.06
			c34.11-34.82,59.3199-77,91.3-113.63c3.32-3.52,6.25-7.48,10.21-10.33c-15.17,34.01-23.09,70.68-28.8,107.32
			c-3.34,20.82-6.05,41.74-9.03,62.62c-0.34,1.69-0.34,3.66-1.7,4.92c-13.85,14.88-28.48,29.15-44.74,41.4
			c-10.37,7.85-21.46,15.17-33.99,19.02C521.09,742.44,515.93,742.9,510.99,741.78z"/>
		<path fill="#FFEDD5" d="M179.29,562.33c10.21-5.69,21.85-10.18,33.73-9.02c6.37,0.55,11.17,5.71,13.35,11.42
			c5.62,13.6,8.23,28.19,11.28,42.53c-11.62,16.35-23.16,32.78-33.63,49.91c-24.37,1.87-47.78,9.64-72.04,12.22
			c-9.78,1.23-20.37,2.72-29.58-1.77c-4.63-2.25-9.14-7.61-6.92-13c2.87-5.82,9.57-8.26,15.52-9.55c12-1.81,24.13-3.16,35.91-6.17
			c4.82-1.56,10.59-2.91,13.27-7.6801c2.1-3.42,0.82-7.84-1.58-10.75c-4.12-5.02-9.87-8.25-15.28-11.66
			c-6.77-3.85-13.57-7.85-21.06-10.14c-11.07-3.47-22.66-4.64-34.08-6.41l2.67-17.68c10.21,3.75,20.66,6.95,30.75,10.88
			c8.56,3.11,16.45,7.64,24.42,11.95c1.56-0.6299,3.76-1.42,3.55-3.52c-0.43-4.72,2.14-8.89,5.07-12.35
			C161.49,573.58,170.16,567.42,179.29,562.33z"/>
		<path fill="#FFEDD5" d="M61.62,560.35c9.08,6.16,19.03,10.47,29.23,14.23l-2.67,17.68c-0.04-0.01-0.08-0.01-0.12-0.02
			c-19.74-3.12-39.87-5.52-58.66-12.7c-7.95-3.15-16.69-7.45-19.96-15.95c-3.36-10.92,2.99-24.76,14.49-27.59
			c5.8-1.62,11.83,1.02,16.05,4.97C47.14,547.48,53.36,555.12,61.62,560.35z"/>
		<path fill="#867EA3" d="M264.29,587.31c-22.06,32.13-46.45,62.96-63.96,97.96c-4.12,8.94-8.43,18.11-9.26,28.05
			c16.92-0.82,33.06-7.28,49.99-8.21c44.15-4.8,88.58-8.86,133.03-6.6c20.22,1.19,40.44,3.87,59.96,9.39
			c26.99,8.18,49.32,27.35,76.94,33.88c4.94,1.12,10.1,0.66,14.91-0.8701c12.53-3.85,23.62-11.17,33.99-19.02
			c16.26-12.25,30.89-26.52,44.74-41.4c1.36-1.26,1.36-3.23,1.7-4.92c2.98-20.88,5.69-41.8,9.03-62.62
			c5.71-36.64,13.63-73.31,28.8-107.32c-3.96,2.85-6.89,6.81-10.21,10.33c-31.98,36.63-57.19,78.81-91.3,113.63
			c-14.37,14.5-30.69,28.3-50.67,34.06c-12.02,3.72-25.14,3.27-36.98-0.92c-17.01-6.04-33.32-13.8-49.89-20.93
			c-39.17-17.06-77.73-35.74-118.16-49.75C279.58,589.81,272.11,587.02,264.29,587.31z M213.02,553.31
			c-11.88-1.16-23.52,3.33-33.73,9.02c-9.13,5.09-17.8,11.25-24.65,19.21c-2.93,3.46-5.5,7.63-5.07,12.35
			c0.21,2.1-1.99,2.89-3.55,3.52c-7.97-4.31-15.86-8.84-24.42-11.95c-10.09-3.93-20.54-7.13-30.75-10.88
			c-10.2-3.76-20.15-8.07-29.23-14.23c-8.26-5.23-14.48-12.87-21.64-19.38c-4.22-3.95-10.25-6.59-16.05-4.97
			c-11.5,2.83-17.85,16.67-14.49,27.59c3.27,8.5,12.01,12.8,19.96,15.95c18.79,7.18,38.92,9.58,58.66,12.7
			c0.04,0.01,0.08,0.01,0.12,0.02c11.42,1.77,23.01,2.94,34.08,6.41c7.49,2.29,14.29,6.29,21.06,10.14
			c5.41,3.41,11.16,6.64,15.28,11.66c2.4,2.91,3.68,7.33,1.58,10.75c-2.68,4.77-8.45,6.1201-13.27,7.6801
			c-11.78,3.0099-23.91,4.36-35.91,6.17c-5.95,1.29-12.65,3.73-15.52,9.55c-2.22,5.39,2.29,10.75,6.92,13
			c9.21,4.49,19.8,3,29.58,1.77c24.26-2.58,47.67-10.35,72.04-12.22c10.47-17.13,22.01-33.56,33.63-49.91
			c-3.05-14.34-5.66-28.93-11.28-42.53C224.19,559.02,219.39,553.86,213.02,553.31z M495.97,954.97
			c9.33,5.85,20.34,8.28,31.08,10.04c19.21,2.56,38.71,1.95,57.97,0.3c11.83-1.33,23.74-2.35,35.44-4.6
			c8.21-23.82,19.64-46.39,31.98-68.31c23.32-41.31,51.05-80.05,72.38-122.48c12.07-24.3,22-50.02,25.78-77.01
			c2.54-17.37,0.9301-35.28-4.59-51.94c-6.95-21.12-18.45-40.3-29.49-59.47c-7.69-13.58-15.77-27.24-19.86-42.44
			c-4.24-15.44-3.42-32.45,3.4901-47.01c1.69-3.79,3.71-7.38,5.96-10.83l4.7,1.99c-7.94,12.33-12.45,27.18-10.63,41.88
			c1.5,14.31,7.89,27.48,14.84,39.8799c10.7,18.95,22.82,37.13,32.21,56.8101c5.98,12.6299,9.93,26.1899,12.04,40
			c3.51,21.53-0.6,43.4399-6.49,64.17c-3.34,11.88-7.65,23.42-12.61,34.7c-4.96,11.27-10.55,22.27-16.45,33.0699
			c-22.3,41.73-49.81,80.45-71.35,122.6c-11.03,21.56-20.91,43.88-26.81,67.44c-0.55,2.59-1.72,5.23-1.21,7.93
			c3.46,3.56,8.37,5.25,12.95,6.89c10.12,3.14,20.49,5.21,30.94,6.78l-1.73,11.45c-11.32-1.74-22.56-3.92-33.52-7.26
			c-0.61,0.67-1.23,1.33-1.85,1.99l-7.92-0.71c1.27-1.21,2.55-2.43,3.8101-3.66c-1.28-0.65-2.58-1.26-3.8701-1.83
			c-15.79,10.85-26.9,26.8599-37.18,42.71c-21.97,34.98-38.63,72.9099-55.47,110.5199c-2.69,6.3301-6.73,11.92-10.16,17.8401
			c-21.97,36.7999-40.83,75.4399-56.76,115.23c-30.85,77.53-51.06,160.03-52.77,243.72c-0.76,49.2001,5.47,98.76,20.94,145.58
			c-15.09-4.7699-30.05-9.95-45.14-14.75c-26.05-8.75-52.08-17.6-77.73-27.47c-8.43-3.4-16.89-6.7-25.19-10.39
			c-7.33-3.2999-9.62-12-10.15-19.33c-1.05-16.91,2.89-33.58,6.64-49.9399c4.82-19.64,11.11-38.91,15.27-58.7101
			c10.58-45.49,25.12-90.02,42.7-133.27c45.34-112.0599,110.41-214.71,158.05-325.71c9.39-22.67,21.45-44.22,35.79-64.12
			c-14.97-1.84-30.14-5.09-43.15-13.04c-3.08-1.94-4.76-5.59-4.77-9.16c-0.03-5.46,2.26-10.56,4.56-15.4
			c6.6-12.86,14.95-24.73,23.72-36.19c8.53-11.14,17.14-22.21,26.01-33.08c18.66-25.45,30.81-54.9,41.21-84.49
			c5.67-16.47,11.27-32.99,15.57-49.88c3.5-14.23,6.25-28.64,8.46-43.12c-16.87,17.81-34.92,34.89-55.99,47.68
			c-11.03,6.4-23.48,12.52-36.62,10.48c-29.26-5.54-52.66-26.1-81.02-34.21c-24.47-6.34-49.83-8.46-75.03-8.89
			c-41.13-0.29-82.08,4.15-122.9,8.73c-13.34,2.34-26.46,6.14-39.99,7.32c-4.04,0.19-9.84,0.11-11.52-4.43
			c-1-5.16,0.31-10.45,1.42-15.49c4.03-14.95,11.34-28.77,19.12-42.07c-24.25,3.24-47.66,11-71.99,13.86
			c-9.33,1.44-19.27,1.97-28.16-1.76c-5.22-2.34-10.28-6.21-12.18-11.82c-1.47-4.94-0.55-10.67,2.87-14.6
			c4.69-5.8,12.04-8.5,19.13-9.92c12.09-2.14,24.44-3.26,36.22-6.89c2.52-0.72,4.69-2.19,6.79-3.7c-3.64-5.11-9.19-8.3-14.49-11.43
			c-6.36-3.43-12.63-7.21-19.62-9.25c-11.59-3.45-23.69-4.53-35.6-6.39c-19.69-3.03-39.74-5.44-58.44-12.67
			c-7.52-3.21-15.14-7.15-20.35-13.65c-3.11-3.77-4.59-8.57-5.26-13.33v-6.93c1.41-7.76,4.99-15.33,11.15-20.41
			c7.35-6.32,18.53-8.17,27.2-3.5c9.56,5.06,15.54,14.55,24.05,20.98c9.22,7.61,20.36,12.3,31.44,16.5
			c16.47,6.38,33.84,10.9301,49.03,20.23c3.33-9.01,10.75-15.53,18.12-21.27c8.51-6.38,17.86-11.76,27.89-15.35
			c10.03-3.35,21.52-5.98,31.55-1.26c5.73,2.51,9.31,7.98,11.42,13.65c4.82,12.4901,7.19,25.75,9.69,38.86
			c4.38-6.11,8.85-12.16,13.11-18.35c1.73-2.49,3.65-5.27,6.79-6.01c4.93-1.13,10.02-0.1,14.84,1.07
			c21.41,5.37,41.57,14.58,61.8,23.2c34.81,14.86,68.9,31.34,103.58,46.51c9.46,3.92,18.97,8.39,29.28,9.46
			c8.75,1,17.59-0.88,25.7-4.13c14.86-5.92,27.49-16.16,38.89-27.17c28.1-27.31,50.33-59.7599,74.8-90.17
			c11.18-14.05,22.83-27.86,36.38-39.69c2.54-2.01,5.07-4.37,6.48-7.32l4.76,2.82c-5.66,9.79-10.35,20.14-14.23,30.75
			c-14.68,40.29-19.78,83.11-25.39,125.37c-4.6,35.76-8.31,71.88-18.52,106.59c-5.88,19.42-12.18,38.72-19.34,57.7
			c-9.6,25.04-21.6299,49.44-38.34,70.55c-15.39,19.8-31.81,39.13-43.45,61.5C497.33,947.84,495.16,951.53,495.97,954.97z"/>
	</g>
</g>
</svg>
